<?xml version="1.0" encoding="iso-8859-1"?>
<!-- Generator: Adobe Illustrator 21.0.2, SVG Export Plug-In . SVG Version: 6.00 Build 0)  -->
<svg version="1.1" id="Layer_1" xmlns="http://www.w3.org/2000/svg" xmlns:xlink="http://www.w3.org/1999/xlink" x="0px" y="0px"
	 viewBox="0 0 1280 1024" style="enable-background:new 0 0 1280 1024;" xml:space="preserve">
<g>
	
		<image style="overflow:visible;" width="266" height="160" xlink:href="DBC2FBA0.jpg"  transform="matrix(0.9999 0 0 0.9999 -7552 -7680)">
	</image>
	<g>
		<path d="M1265,526.118c-15.837,14.13-31.675,28.261-49.667,44.314c-82.983-93.302-164.897-185.402-248.261-279.132
			c-38.289,40.029-74.655,78.048-112.188,117.287c40.781,47.635,80.064,93.52,120.434,140.676
			c-107.252,122.629-213.783,244.435-321.906,368.06c-109.124-121.928-216.807-242.246-325.63-363.838
			c39.621-47.743,78.678-94.807,119.09-143.505c-34.468-41.683-68.075-82.326-103.202-124.806
			c-82.734,94.992-164.309,188.654-247.69,284.388c-19.098-15.116-36.86-29.176-57.287-45.344
			C140.465,408.727,241.242,294.363,342.019,180c1.538,0,3.077,0,4.615,0c28.272,33.972,56.297,68.154,84.898,101.846
			c21.109,24.867,42.97,49.097,65.621,74.893c50.364-58.004,98.839-113.833,148.587-171.128
			c54.852,58.236,106.776,113.364,159.697,169.55c53.044-57.829,104.639-114.079,157.729-171.957
			c30.82,34.002,59.094,65.132,87.299,96.325c71.528,79.105,143.026,158.237,214.535,237.359
			C1265,519.965,1265,523.041,1265,526.118z M650.809,810.221c7.636-8.478,12.817-14.08,17.834-19.824
			c66.159-75.746,131.933-151.835,198.807-226.944c10.661-11.974,10.748-18.501,0.362-30.071
			c-55.827-62.193-110.859-125.1-166.188-187.74c-17.097-19.356-34.266-38.649-52.857-59.612
			c-76.169,90.864-150.453,179.48-226.247,269.897C498.567,640.637,573.74,724.373,650.809,810.221z"/>
	</g>
</g>
<g>
</g>
<g>
</g>
<g>
</g>
<g>
</g>
<g>
</g>
<g>
</g>
<g>
</g>
<g>
</g>
<g>
</g>
<g>
</g>
<g>
</g>
<g>
</g>
<g>
</g>
<g>
</g>
<g>
</g>
</svg>
