<?xml version="1.0" standalone="no"?>
<!DOCTYPE svg PUBLIC "-//W3C//DTD SVG 20010904//EN"
 "http://www.w3.org/TR/2001/REC-SVG-20010904/DTD/svg10.dtd">
<svg version="1.0" xmlns="http://www.w3.org/2000/svg"
 width="16.000000pt" height="16.000000pt" viewBox="0 0 16.000000 16.000000"
 preserveAspectRatio="xMidYMid meet">
<metadata>
Created by potrace 1.11, written by Peter Selinger 2001-2013
</metadata>
<g transform="translate(0.000000,16.000000) scale(0.001333,-0.001333)"
fill="#000000" stroke="none">
<path d="M0 6000 l0 -6000 6000 0 6000 0 0 6000 0 6000 -6000 0 -6000 0 0
-6000z m4017 2233 c294 -354 681 -803 804 -935 l44 -47 575 664 c316 366 578
665 582 665 4 0 284 -295 624 -655 339 -360 620 -655 624 -655 4 0 280 298
614 663 334 364 611 663 615 665 8 3 105 -103 1459 -1601 854 -945 902 -1000
902 -1035 0 -35 -8 -44 -157 -177 -87 -77 -174 -155 -194 -173 l-37 -33 -962
1083 c-530 596 -966 1087 -970 1091 -5 6 -737 -748 -849 -875 l-32 -37 470
-548 469 -547 -57 -66 c-32 -36 -595 -679 -1251 -1430 -656 -751 -1196 -1369
-1200 -1373 -8 -9 -2553 2830 -2546 2841 2 4 211 257 464 562 l461 554 -43 51
c-23 27 -203 245 -400 483 -196 237 -360 432 -364 432 -4 0 -439 -497 -967
-1104 -528 -608 -963 -1105 -966 -1105 -8 -1 -442 343 -443 350 -1 4 530 610
1179 1347 821 933 1186 1341 1200 1341 15 1 108 -104 352 -396z"/>
<path d="M5185 6775 c-473 -565 -870 -1039 -882 -1055 l-23 -28 542 -603 c298
-332 699 -779 892 -993 l349 -389 31 35 c221 255 1299 1485 1470 1678 151 171
231 269 242 297 16 42 16 44 -7 88 -13 24 -161 199 -329 387 -168 189 -540
609 -827 933 -286 325 -538 609 -559 633 l-39 43 -860 -1026z"/>
</g>
</svg>
